<?xml version="1.0"?><svg fill="#000000" xmlns="http://www.w3.org/2000/svg" viewBox="0 0 100 100" width="100px" height="100px">    <path d="M 49.923828 8.9765625 C 35.900828 8.9765625 23.442953 15.390219 19.626953 24.574219 C 19.540953 24.781219 19.524938 25.012516 19.585938 25.228516 L 22.283203 34.882812 C 22.404203 35.314812 22.797094 35.613281 23.246094 35.613281 L 27.306641 35.613281 L 27.306641 76.714844 C 25.027541 77.179683 23.306641 79.198916 23.306641 81.613281 L 23.306641 88.613281 C 23.306641 89.165281 23.754641 89.613281 24.306641 89.613281 L 75.306641 89.613281 C 75.858641 89.613281 76.306641 89.165281 76.306641 88.613281 L 76.306641 81.613281 C 76.306641 79.198908 74.585751 77.179674 72.306641 76.714844 L 72.306641 35.613281 L 76.601562 35.613281 C 77.049563 35.613281 77.444453 35.314813 77.564453 34.882812 L 80.261719 25.228516 C 80.321719 25.012516 80.308656 24.781219 80.222656 24.574219 C 76.407656 15.390219 63.947828 8.9765625 49.923828 8.9765625 z M 49.923828 10.976562 C 62.997828 10.976563 74.571234 16.738297 78.240234 25.029297 L 75.84375 33.613281 L 24.005859 33.613281 L 21.771484 25.613281 L 68.806641 25.613281 C 69.082641 25.613281 69.306641 25.389281 69.306641 25.113281 C 69.306641 24.837281 69.082641 24.613281 68.806641 24.613281 L 21.820312 24.613281 C 25.690855 16.549353 37.07374 10.976562 49.923828 10.976562 z M 71.806641 24.613281 C 71.530641 24.613281 71.306641 24.837281 71.306641 25.113281 C 71.306641 25.389281 71.530641 25.613281 71.806641 25.613281 L 73.806641 25.613281 C 74.082641 25.613281 74.306641 25.389281 74.306641 25.113281 C 74.306641 24.837281 74.082641 24.613281 73.806641 24.613281 L 71.806641 24.613281 z M 29.306641 35.613281 L 70.306641 35.613281 L 70.306641 76.613281 L 29.306641 76.613281 L 29.306641 35.613281 z M 34.587891 42.613281 C 33.881891 42.613281 33.306641 43.188531 33.306641 43.894531 L 33.306641 46.332031 C 33.306641 47.038031 33.881891 47.613281 34.587891 47.613281 L 65.025391 47.613281 C 65.731391 47.613281 66.306641 47.038031 66.306641 46.332031 L 66.306641 43.894531 C 66.306641 43.188531 65.731391 42.613281 65.025391 42.613281 L 34.587891 42.613281 z M 34.587891 43.613281 L 65.025391 43.613281 C 65.180391 43.613281 65.306641 43.739531 65.306641 43.894531 L 65.306641 46.332031 C 65.306641 46.487031 65.180391 46.613281 65.025391 46.613281 L 34.587891 46.613281 C 34.432891 46.613281 34.306641 46.487031 34.306641 46.332031 L 34.306641 43.894531 C 34.306641 43.739531 34.432891 43.613281 34.587891 43.613281 z M 37.806641 54.613281 C 37.530641 54.613281 37.306641 54.837281 37.306641 55.113281 L 37.306641 67.113281 C 37.306641 67.389281 37.530641 67.613281 37.806641 67.613281 L 61.550781 67.613281 C 61.554087 67.613346 61.557241 67.615234 61.560547 67.615234 C 61.563867 67.615234 61.566994 67.613348 61.570312 67.613281 L 61.806641 67.613281 C 62.082641 67.613281 62.306641 67.390281 62.306641 67.113281 L 62.306641 55.113281 C 62.306641 54.837281 62.082641 54.613281 61.806641 54.613281 L 37.806641 54.613281 z M 40.103516 55.613281 L 59.466797 55.613281 L 49.785156 60.613281 L 40.103516 55.613281 z M 61.306641 55.789062 L 61.306641 66.232422 L 53.746094 59.693359 L 61.306641 55.789062 z M 38.306641 55.810547 L 45.998047 59.783203 L 38.306641 66.439453 L 38.306641 55.810547 z M 52.835938 60.164062 C 52.864811 60.228015 52.906255 60.288842 52.962891 60.337891 L 60.21875 66.613281 L 39.630859 66.613281 L 46.886719 60.335938 C 46.908814 60.316802 46.919583 60.291378 46.9375 60.269531 L 49.554688 61.621094 C 49.625688 61.658094 49.704203 61.677734 49.783203 61.677734 C 49.861203 61.677734 49.941625 61.658094 50.015625 61.621094 L 52.835938 60.164062 z M 28.306641 78.613281 L 71.306641 78.613281 C 72.960641 78.613281 74.306641 79.959281 74.306641 81.613281 L 74.306641 87.613281 L 25.306641 87.613281 L 25.306641 81.613281 C 25.306641 81.499539 25.327451 81.391742 25.339844 81.28125 C 25.409194 81.474153 25.589954 81.613281 25.806641 81.613281 L 62.806641 81.613281 C 63.082641 81.613281 63.306641 81.389281 63.306641 81.113281 C 63.306641 80.837281 63.082641 80.613281 62.806641 80.613281 L 25.806641 80.613281 C 25.659532 80.613281 25.530972 80.680021 25.439453 80.78125 C 25.803121 79.533801 26.943472 78.613281 28.306641 78.613281 z M 66.806641 80.613281 C 66.530641 80.613281 66.306641 80.837281 66.306641 81.113281 C 66.306641 81.389281 66.530641 81.613281 66.806641 81.613281 L 70.806641 81.613281 C 71.082641 81.613281 71.306641 81.389281 71.306641 81.113281 C 71.306641 80.837281 71.082641 80.613281 70.806641 80.613281 L 66.806641 80.613281 z"/></svg>